<?xml version="1.0" standalone="no"?>
<!DOCTYPE svg PUBLIC "-//W3C//DTD SVG 20010904//EN"
 "http://www.w3.org/TR/2001/REC-SVG-20010904/DTD/svg10.dtd">
<svg version="1.0" xmlns="http://www.w3.org/2000/svg"
 width="50.000000pt" height="50.000000pt" viewBox="0 0 50.000000 50.000000"
 preserveAspectRatio="xMidYMid meet">

<g transform="translate(0.000000,50.000000) scale(0.100000,-0.100000)"
fill="#000000" stroke="none">
<path d="M90 397 c0 -18 -11 -62 -25 -97 -22 -57 -23 -66 -10 -86 7 -12 15
-48 17 -80 l3 -59 83 -3 c53 -2 89 1 98 9 9 7 14 32 14 70 l0 59 65 0 65 0 0
-70 c0 -56 3 -70 15 -70 12 0 15 14 15 70 0 39 4 70 9 70 20 0 19 33 -5 89
-13 33 -24 76 -24 96 l0 35 -160 0 -160 0 0 -33z m78 -20 c4 -20 -25 -34 -39
-20 -14 14 1 45 20 41 9 -2 17 -11 19 -21z m59 7 c3 -8 1 -20 -5 -26 -15 -15
-43 8 -35 28 7 19 32 18 40 -2z m3 -229 l0 -56 -62 3 -63 3 -3 53 -3 52 65 0
66 0 0 -55z"/>
</g>
</svg>
